<?xml version="1.0" encoding="UTF-8" standalone="no"?>
<!DOCTYPE svg PUBLIC "-//W3C//DTD SVG 1.1//EN"
 "http://www.w3.org/Graphics/SVG/1.1/DTD/svg11.dtd">
<!-- Generated by graphviz version 15.1.0 (20260618.0150)
 -->
<!-- Title: fsm_mrg_mv_gain Pages: 1 -->
<svg width="1680pt" height="269pt"
 viewBox="0.00 0.00 1680.00 269.00" xmlns="http://www.w3.org/2000/svg" xmlns:xlink="http://www.w3.org/1999/xlink">
<g id="graph0" class="graph" transform="scale(1 1) rotate(0) translate(21.6 247.6)">
<title>fsm_mrg_mv_gain</title>
<polygon fill="white" stroke="none" points="-21.6,21.6 -21.6,-247.6 1658.21,-247.6 1658.21,21.6 -21.6,21.6"/>
<text xml:space="preserve" text-anchor="middle" x="818.31" y="-206.8" font-family="Arial" font-size="16.00">ve_mrg_top motion&#45;gain FSM</text>
<!-- reset&#45;&gt;idle -->
<g id="edge1" class="edge">
<title>reset&#45;&gt;idle</title>
<path fill="none" stroke="#315b7d" stroke-width="1.55" d="M9.76,-72.27C28.68,-72.27 109.75,-72.27 175.59,-72.27"/>
<polygon fill="#315b7d" stroke="#315b7d" stroke-width="1.55" points="175.23,-74.79 182.43,-72.27 175.23,-69.75 175.23,-74.79"/>
<text xml:space="preserve" text-anchor="middle" x="97.36" y="-74.22" font-family="Arial" font-size="9.00" fill="#315b7d">!vc_rst_z or reg_slice_go</text>
</g>
<!-- idle&#45;&gt;idle -->
<g id="edge4" class="edge">
<title>idle&#45;&gt;idle</title>
<path fill="none" stroke="#8a94a3" stroke-width="1.05" stroke-dasharray="5,2" d="M240.52,-97.16C227.55,-120.06 236.16,-144.75 266.36,-144.75 293.14,-144.75 302.95,-125.34 295.78,-104.97"/>
<polygon fill="#8a94a3" stroke="#8a94a3" stroke-width="1.05" points="298.15,-104.1 292.86,-98.6 293.57,-106.2 298.15,-104.1"/>
<text xml:space="preserve" text-anchor="middle" x="266.36" y="-146.7" font-family="Arial" font-size="9.00" fill="#626d7a">otherwise</text>
</g>
<!-- idle&#45;&gt;p8 -->
<g id="edge3" class="edge">
<title>idle&#45;&gt;p8</title>
<path fill="none" stroke="#315b7d" stroke-width="1.5" d="M347.95,-80.86C417.71,-88.3 518.49,-99.04 590.74,-106.74"/>
<polygon fill="#315b7d" stroke="#315b7d" stroke-width="1.5" points="590.17,-109.21 597.59,-107.47 590.7,-104.2 590.17,-109.21"/>
<text xml:space="preserve" text-anchor="middle" x="458.24" y="-101.46" font-family="Arial" font-size="9.00" fill="#315b7d">!reg_avc_mode &amp;&amp; cand_push[1]</text>
</g>
<!-- idle&#45;&gt;p16 -->
<g id="edge2" class="edge">
<title>idle&#45;&gt;p16</title>
<path fill="none" stroke="#4b5563" stroke-width="1.05" d="M347.69,-67.36C408.47,-63.9 494,-59.58 569.11,-57.77 668.75,-55.38 693.72,-55.36 793.36,-57.77 864.17,-59.49 944.31,-63.47 1003.86,-66.84"/>
<polygon fill="#4b5563" stroke="#4b5563" stroke-width="1.05" points="1003.58,-69.34 1010.91,-67.24 1003.86,-64.31 1003.58,-69.34"/>
<text xml:space="preserve" text-anchor="middle" x="681.24" y="-59.72" font-family="Arial" font-size="9.00" fill="#374151">reg_avc_mode &amp;&amp; cand_push[2]</text>
</g>
<!-- p8&#45;&gt;idle -->
<g id="edge7" class="edge">
<title>p8&#45;&gt;idle</title>
<path fill="none" stroke="#8a94a3" stroke-width="1.05" stroke-dasharray="5,2" d="M625.22,-91.25C597.84,-80.14 563.89,-68.34 532.11,-62.77 474.17,-52.63 408.06,-54.99 356.39,-59.9"/>
<polygon fill="#8a94a3" stroke="#8a94a3" stroke-width="1.05" points="356.39,-57.36 349.48,-60.58 356.89,-62.38 356.39,-57.36"/>
<text xml:space="preserve" text-anchor="middle" x="458.24" y="-64.72" font-family="Arial" font-size="9.00" fill="#626d7a">mvg_cnt==5 &amp;&amp; !cu_empty_n_reg[1]</text>
</g>
<!-- p8&#45;&gt;p8 -->
<g id="edge5" class="edge">
<title>p8&#45;&gt;p8</title>
<path fill="none" stroke="#8a94a3" stroke-width="1.05" stroke-dasharray="5,2" d="M647.31,-141.16C630.28,-164.06 641.58,-188.75 681.24,-188.75 716.7,-188.75 729.49,-169 719.6,-148.43"/>
<polygon fill="#8a94a3" stroke="#8a94a3" stroke-width="1.05" points="721.89,-147.34 715.98,-142.51 717.59,-149.97 721.89,-147.34"/>
<text xml:space="preserve" text-anchor="middle" x="681.24" y="-190.7" font-family="Arial" font-size="9.00" fill="#626d7a">mvg_cnt != 5</text>
</g>
<!-- p8&#45;&gt;p16 -->
<g id="edge6" class="edge">
<title>p8&#45;&gt;p16</title>
<path fill="none" stroke="#315b7d" stroke-width="1.5" d="M762.38,-107.69C831.66,-100.26 931.67,-89.55 1003.51,-81.85"/>
<polygon fill="#315b7d" stroke="#315b7d" stroke-width="1.5" points="1003.42,-84.39 1010.31,-81.12 1002.88,-79.38 1003.42,-84.39"/>
<text xml:space="preserve" text-anchor="middle" x="903.11" y="-101.46" font-family="Arial" font-size="9.00" fill="#315b7d">mvg_cnt==5 &amp;&amp; cu_empty_n_reg[1]</text>
</g>
<!-- p16&#45;&gt;idle -->
<g id="edge9" class="edge">
<title>p16&#45;&gt;idle</title>
<path fill="none" stroke="#8a94a3" stroke-width="1.05" stroke-dasharray="5,2" d="M1012.56,-53.61C1000.31,-51.2 987.79,-48.98 975.86,-47.27 715.62,-10.02 644.41,-4.72 384.36,-43.27 375.25,-44.62 365.81,-46.37 356.42,-48.33"/>
<polygon fill="#8a94a3" stroke="#8a94a3" stroke-width="1.05" points="355.89,-45.87 349.39,-49.85 356.96,-50.79 355.89,-45.87"/>
<text xml:space="preserve" text-anchor="middle" x="681.24" y="-25.23" font-family="Arial" font-size="9.00" fill="#626d7a">mvg_cnt==5 &amp;&amp; (reg_avc_mode || !cu_empty_n_reg[2])</text>
</g>
<!-- p16&#45;&gt;p16 -->
<g id="edge8" class="edge">
<title>p16&#45;&gt;p16</title>
<path fill="none" stroke="#8a94a3" stroke-width="1.05" stroke-dasharray="5,2" d="M1064.7,-97.16C1050.05,-120.06 1059.77,-144.75 1093.86,-144.75 1124.22,-144.75 1135.25,-125.17 1126.95,-104.7"/>
<polygon fill="#8a94a3" stroke="#8a94a3" stroke-width="1.05" points="1129.32,-103.79 1123.76,-98.56 1124.85,-106.11 1129.32,-103.79"/>
<text xml:space="preserve" text-anchor="middle" x="1093.86" y="-146.7" font-family="Arial" font-size="9.00" fill="#626d7a">mvg_cnt != 5</text>
</g>
<!-- p16&#45;&gt;p32 -->
<g id="edge10" class="edge">
<title>p16&#45;&gt;p32</title>
<path fill="none" stroke="#315b7d" stroke-width="1.5" d="M1175.21,-72.27C1256.21,-72.27 1380.97,-72.27 1465.1,-72.27"/>
<polygon fill="#315b7d" stroke="#315b7d" stroke-width="1.5" points="1464.91,-74.79 1472.11,-72.27 1464.91,-69.75 1464.91,-74.79"/>
<text xml:space="preserve" text-anchor="middle" x="1324.74" y="-74.22" font-family="Arial" font-size="9.00" fill="#315b7d">mvg_cnt==5 &amp;&amp; !reg_avc_mode &amp;&amp; cu_empty_n_reg[2]</text>
</g>
<!-- p32&#45;&gt;idle -->
<g id="edge12" class="edge">
<title>p32&#45;&gt;idle</title>
<path fill="none" stroke="#8a94a3" stroke-width="1.05" stroke-dasharray="5,2" d="M1474.32,-61.34C1397.52,-51.07 1278.41,-35.63 1174.86,-24.27 1086.56,-14.59 1064.57,-10.25 975.86,-5.77 795.31,3.34 749.85,-0.36 569.11,-4.27 486.94,-6.05 463.82,8.74 384.36,-12.27 359.59,-18.82 334.06,-31.16 313.19,-42.95"/>
<polygon fill="#8a94a3" stroke="#8a94a3" stroke-width="1.05" points="312.07,-40.69 307.1,-46.47 314.59,-45.05 312.07,-40.69"/>
<text xml:space="preserve" text-anchor="middle" x="903.11" y="-7.72" font-family="Arial" font-size="9.00" fill="#626d7a">mvg_cnt == 5</text>
</g>
<!-- p32&#45;&gt;p32 -->
<g id="edge11" class="edge">
<title>p32&#45;&gt;p32</title>
<path fill="none" stroke="#8a94a3" stroke-width="1.05" stroke-dasharray="5,2" d="M1520.31,-97.16C1502.58,-120.06 1514.35,-144.75 1555.61,-144.75 1592.52,-144.75 1605.83,-125 1595.53,-104.43"/>
<polygon fill="#8a94a3" stroke="#8a94a3" stroke-width="1.05" points="1597.75,-103.22 1591.76,-98.5 1593.49,-105.92 1597.75,-103.22"/>
<text xml:space="preserve" text-anchor="middle" x="1555.61" y="-146.7" font-family="Arial" font-size="9.00" fill="#626d7a">mvg_cnt != 5</text>
</g>
<!-- reset -->
<g id="node1" class="node">
<title>reset</title>
<ellipse fill="#315b7d" stroke="#315b7d" stroke-width="1.2" cx="4.68" cy="-72.27" rx="4.68" ry="4.68"/>
</g>
<!-- idle -->
<g id="node2" class="node">
<title>idle</title>
<path fill="#e8f3ea" stroke="#6f8f78" stroke-width="1.2" d="M335.36,-96.75C335.36,-96.75 197.36,-96.75 197.36,-96.75 191.36,-96.75 185.36,-90.75 185.36,-84.75 185.36,-84.75 185.36,-59.79 185.36,-59.79 185.36,-53.79 191.36,-47.79 197.36,-47.79 197.36,-47.79 335.36,-47.79 335.36,-47.79 341.36,-47.79 347.36,-53.79 347.36,-59.79 347.36,-59.79 347.36,-84.75 347.36,-84.75 347.36,-90.75 341.36,-96.75 335.36,-96.75"/>
<text xml:space="preserve" text-anchor="middle" x="266.36" y="-68.3" font-family="Arial" font-size="10.50" fill="#263442">MVG_IDLE</text>
</g>
<!-- p8 -->
<g id="node3" class="node">
<title>p8</title>
<path fill="#eaf0f6" stroke="#62758a" stroke-width="1.2" d="M750.24,-140.75C750.24,-140.75 612.24,-140.75 612.24,-140.75 606.24,-140.75 600.24,-134.75 600.24,-128.75 600.24,-128.75 600.24,-103.79 600.24,-103.79 600.24,-97.79 606.24,-91.79 612.24,-91.79 612.24,-91.79 750.24,-91.79 750.24,-91.79 756.24,-91.79 762.24,-97.79 762.24,-103.79 762.24,-103.79 762.24,-128.75 762.24,-128.75 762.24,-134.75 756.24,-140.75 750.24,-140.75"/>
<text xml:space="preserve" text-anchor="middle" x="681.24" y="-112.3" font-family="Arial" font-size="10.50" fill="#263442">MVG_BLK8</text>
</g>
<!-- p16 -->
<g id="node4" class="node">
<title>p16</title>
<path fill="#eaf0f6" stroke="#62758a" stroke-width="1.2" d="M1162.86,-96.75C1162.86,-96.75 1024.86,-96.75 1024.86,-96.75 1018.86,-96.75 1012.86,-90.75 1012.86,-84.75 1012.86,-84.75 1012.86,-59.79 1012.86,-59.79 1012.86,-53.79 1018.86,-47.79 1024.86,-47.79 1024.86,-47.79 1162.86,-47.79 1162.86,-47.79 1168.86,-47.79 1174.86,-53.79 1174.86,-59.79 1174.86,-59.79 1174.86,-84.75 1174.86,-84.75 1174.86,-90.75 1168.86,-96.75 1162.86,-96.75"/>
<text xml:space="preserve" text-anchor="middle" x="1093.86" y="-68.3" font-family="Arial" font-size="10.50" fill="#263442">MVG_BLK16</text>
</g>
<!-- p32 -->
<g id="node5" class="node">
<title>p32</title>
<path fill="#eaf0f6" stroke="#62758a" stroke-width="1.2" d="M1624.61,-96.75C1624.61,-96.75 1486.61,-96.75 1486.61,-96.75 1480.61,-96.75 1474.61,-90.75 1474.61,-84.75 1474.61,-84.75 1474.61,-59.79 1474.61,-59.79 1474.61,-53.79 1480.61,-47.79 1486.61,-47.79 1486.61,-47.79 1624.61,-47.79 1624.61,-47.79 1630.61,-47.79 1636.61,-53.79 1636.61,-59.79 1636.61,-59.79 1636.61,-84.75 1636.61,-84.75 1636.61,-90.75 1630.61,-96.75 1624.61,-96.75"/>
<text xml:space="preserve" text-anchor="middle" x="1555.61" y="-68.3" font-family="Arial" font-size="10.50" fill="#263442">MVG_BLK32</text>
</g>
</g>
</svg>
