<?xml version="1.0" encoding="UTF-8" standalone="no"?>
<!DOCTYPE svg PUBLIC "-//W3C//DTD SVG 1.1//EN"
 "http://www.w3.org/Graphics/SVG/1.1/DTD/svg11.dtd">
<!-- Generated by graphviz version 15.1.0 (20260618.0150)
 -->
<!-- Title: fsm_mrg_term Pages: 1 -->
<svg width="1099pt" height="210pt"
 viewBox="0.00 0.00 1099.00 210.00" xmlns="http://www.w3.org/2000/svg" xmlns:xlink="http://www.w3.org/1999/xlink">
<g id="graph0" class="graph" transform="scale(1 1) rotate(0) translate(20.16 189.79)">
<title>fsm_mrg_term</title>
<polygon fill="white" stroke="none" points="-20.16,20.16 -20.16,-189.79 1078.47,-189.79 1078.47,20.16 -20.16,20.16"/>
<text xml:space="preserve" text-anchor="middle" x="529.16" y="-150.43" font-family="Arial" font-size="16.00">ve_mrg_top termination FSM</text>
<!-- reset&#45;&gt;idle -->
<g id="edge1" class="edge">
<title>reset&#45;&gt;idle</title>
<path fill="none" stroke="#315b7d" stroke-width="1.55" d="M9.75,-62.9C27.89,-62.9 103.41,-62.9 167.56,-62.9"/>
<polygon fill="#315b7d" stroke="#315b7d" stroke-width="1.55" points="167.39,-65.42 174.59,-62.9 167.39,-60.38 167.39,-65.42"/>
<text xml:space="preserve" text-anchor="middle" x="93.36" y="-64.85" font-family="Arial" font-size="9.00" fill="#315b7d">!vc_rst_z or reg_slice_go</text>
</g>
<!-- idle&#45;&gt;idle -->
<g id="edge3" class="edge">
<title>idle&#45;&gt;idle</title>
<path fill="none" stroke="#8a94a3" stroke-width="1.05" stroke-dasharray="5,2" d="M238.6,-87.84C226.3,-109.48 235.29,-132.38 265.56,-132.38 292.16,-132.38 302.33,-114.7 296.05,-95.71"/>
<polygon fill="#8a94a3" stroke="#8a94a3" stroke-width="1.05" points="298.41,-94.83 293.17,-89.29 293.81,-96.89 298.41,-94.83"/>
<text xml:space="preserve" text-anchor="middle" x="265.56" y="-134.33" font-family="Arial" font-size="9.00" fill="#626d7a">otherwise</text>
</g>
<!-- idle&#45;&gt;wait -->
<g id="edge2" class="edge">
<title>idle&#45;&gt;wait</title>
<path fill="none" stroke="#315b7d" stroke-width="1.55" d="M354.32,-62.9C414.95,-62.9 495.61,-62.9 558.19,-62.9"/>
<polygon fill="#315b7d" stroke="#315b7d" stroke-width="1.55" points="558.14,-65.42 565.34,-62.9 558.14,-60.38 558.14,-65.42"/>
<text xml:space="preserve" text-anchor="middle" x="461.01" y="-64.85" font-family="Arial" font-size="9.00" fill="#315b7d">!(|cur_cu_start) &amp;&amp; cur_cu_terminate</text>
</g>
<!-- wait&#45;&gt;wait -->
<g id="edge5" class="edge">
<title>wait&#45;&gt;wait</title>
<path fill="none" stroke="#8a94a3" stroke-width="1.05" stroke-dasharray="5,2" d="M631.91,-87.84C620.71,-109.48 628.89,-132.38 656.46,-132.38 680.58,-132.38 689.86,-114.85 684.3,-95.97"/>
<polygon fill="#8a94a3" stroke="#8a94a3" stroke-width="1.05" points="686.65,-95.04 681.61,-89.31 681.97,-96.93 686.65,-95.04"/>
<text xml:space="preserve" text-anchor="middle" x="656.46" y="-134.33" font-family="Arial" font-size="9.00" fill="#626d7a">!all_queue_empty</text>
</g>
<!-- wait&#45;&gt;flush -->
<g id="edge4" class="edge">
<title>wait&#45;&gt;flush</title>
<path fill="none" stroke="#315b7d" stroke-width="1.55" d="M745.1,-62.9C784.6,-62.9 831.39,-62.9 871.96,-62.9"/>
<polygon fill="#315b7d" stroke="#315b7d" stroke-width="1.55" points="871.77,-65.42 878.97,-62.9 871.77,-60.38 871.77,-65.42"/>
<text xml:space="preserve" text-anchor="middle" x="813.29" y="-64.85" font-family="Arial" font-size="9.00" fill="#315b7d">all_queue_empty</text>
</g>
<!-- flush&#45;&gt;idle -->
<g id="edge6" class="edge">
<title>flush&#45;&gt;idle</title>
<path fill="none" stroke="#8a94a3" stroke-width="1.05" stroke-dasharray="5,2" d="M891.36,-37.86C848.57,-25.38 794.25,-11.66 744.66,-5.4 612.28,11.28 459.14,-15.19 362.57,-37.49"/>
<polygon fill="#8a94a3" stroke="#8a94a3" stroke-width="1.05" points="362.26,-34.97 355.82,-39.06 363.41,-39.88 362.26,-34.97"/>
<text xml:space="preserve" text-anchor="middle" x="656.46" y="-7.35" font-family="Arial" font-size="9.00" fill="#626d7a">gt0 == 0</text>
</g>
<!-- flush&#45;&gt;flush -->
<g id="edge7" class="edge">
<title>flush&#45;&gt;flush</title>
<path fill="none" stroke="#8a94a3" stroke-width="1.05" stroke-dasharray="5,2" d="M945.56,-87.84C934.36,-109.48 942.54,-132.38 970.11,-132.38 994.23,-132.38 1003.51,-114.85 997.95,-95.97"/>
<polygon fill="#8a94a3" stroke="#8a94a3" stroke-width="1.05" points="1000.3,-95.04 995.26,-89.31 995.62,-96.93 1000.3,-95.04"/>
<text xml:space="preserve" text-anchor="middle" x="970.11" y="-134.33" font-family="Arial" font-size="9.00" fill="#626d7a">gt0 != 0</text>
</g>
<!-- reset -->
<g id="node1" class="node">
<title>reset</title>
<ellipse fill="#315b7d" stroke="#315b7d" stroke-width="1.2" cx="4.68" cy="-62.9" rx="4.68" ry="4.68"/>
</g>
<!-- idle -->
<g id="node2" class="node">
<title>idle</title>
<path fill="#e8f3ea" stroke="#6f8f78" stroke-width="1.2" d="M341.76,-87.38C341.76,-87.38 189.36,-87.38 189.36,-87.38 183.36,-87.38 177.36,-81.38 177.36,-75.38 177.36,-75.38 177.36,-50.42 177.36,-50.42 177.36,-44.42 183.36,-38.42 189.36,-38.42 189.36,-38.42 341.76,-38.42 341.76,-38.42 347.76,-38.42 353.76,-44.42 353.76,-50.42 353.76,-50.42 353.76,-75.38 353.76,-75.38 353.76,-81.38 347.76,-87.38 341.76,-87.38"/>
<text xml:space="preserve" text-anchor="middle" x="265.56" y="-58.93" font-family="Arial" font-size="10.50" fill="#263442">TERM_IDLE</text>
</g>
<!-- wait -->
<g id="node3" class="node">
<title>wait</title>
<path fill="#fbf4dc" stroke="#a18a48" stroke-width="1.2" d="M732.66,-87.38C732.66,-87.38 580.26,-87.38 580.26,-87.38 574.26,-87.38 568.26,-81.38 568.26,-75.38 568.26,-75.38 568.26,-50.42 568.26,-50.42 568.26,-44.42 574.26,-38.42 580.26,-38.42 580.26,-38.42 732.66,-38.42 732.66,-38.42 738.66,-38.42 744.66,-44.42 744.66,-50.42 744.66,-50.42 744.66,-75.38 744.66,-75.38 744.66,-81.38 738.66,-87.38 732.66,-87.38"/>
<text xml:space="preserve" text-anchor="middle" x="656.46" y="-58.93" font-family="Arial" font-size="10.50" fill="#263442">TERM_WAIT_EMPTY</text>
</g>
<!-- flush -->
<g id="node4" class="node">
<title>flush</title>
<path fill="#f7ebdd" stroke="#a77b50" stroke-width="1.2" d="M1046.31,-87.38C1046.31,-87.38 893.91,-87.38 893.91,-87.38 887.91,-87.38 881.91,-81.38 881.91,-75.38 881.91,-75.38 881.91,-50.42 881.91,-50.42 881.91,-44.42 887.91,-38.42 893.91,-38.42 893.91,-38.42 1046.31,-38.42 1046.31,-38.42 1052.31,-38.42 1058.31,-44.42 1058.31,-50.42 1058.31,-50.42 1058.31,-75.38 1058.31,-75.38 1058.31,-81.38 1052.31,-87.38 1046.31,-87.38"/>
<text xml:space="preserve" text-anchor="middle" x="970.11" y="-58.93" font-family="Arial" font-size="10.50" fill="#263442">TERM_FLUSH</text>
</g>
</g>
</svg>
